<?xml version="1.0" encoding="UTF-8" standalone="no"?>
<svg
   class="svg-icon"
   style="width: 1em;height: 1em;vertical-align: middle;fill: currentColor;overflow: hidden;"
   viewBox="0 0 1024 1024"
   version="1.1"
   id="svg2"
   sodipodi:docname="001_-set-up copy.svg"
   inkscape:version="1.3.2 (091e20e, 2023-11-25)"
   xmlns:inkscape="http://www.inkscape.org/namespaces/inkscape"
   xmlns:sodipodi="http://sodipodi.sourceforge.net/DTD/sodipodi-0.dtd"
   xmlns="http://www.w3.org/2000/svg"
   xmlns:svg="http://www.w3.org/2000/svg">
  <defs
     id="defs2" />
  <sodipodi:namedview
     id="namedview2"
     pagecolor="#ffffff"
     bordercolor="#000000"
     borderopacity="0.25"
     inkscape:showpageshadow="2"
     inkscape:pageopacity="0.0"
     inkscape:pagecheckerboard="0"
     inkscape:deskcolor="#d1d1d1"
     inkscape:zoom="0.23046875"
     inkscape:cx="512"
     inkscape:cy="512"
     inkscape:window-width="1312"
     inkscape:window-height="449"
     inkscape:window-x="0"
     inkscape:window-y="38"
     inkscape:window-maximized="0"
     inkscape:current-layer="svg2" />
  <g
     id="g2"
     transform="translate(-28.415351,14.07)">
    <path
       d="M 924.43,424.54 H 851.29 A 315.87,315.87 0 0 0 812.08,330 l 51.7,-51.7 a 18.46,18.46 0 0 0 0,-26 l -77.66,-77.66 a 18.46,18.46 0 0 0 -26,0 l -51.7,51.7 a 317.65,317.65 0 0 0 -94.68,-39.21 v -73 A 18.48,18.48 0 0 0 595.32,95.71 H 485.59 a 18.48,18.48 0 0 0 -18.42,18.42 v 73.14 a 315.87,315.87 0 0 0 -94.58,39.21 l -51.7,-51.7 a 18.46,18.46 0 0 0 -26,0 l -77.63,77.62 a 18.46,18.46 0 0 0 0,26 l 51.7,51.7 a 315.87,315.87 0 0 0 -39.21,94.58 H 156.62 A 18.48,18.48 0 0 0 138.2,443.1 v 109.73 a 18.48,18.48 0 0 0 18.42,18.42 h 73 a 317.65,317.65 0 0 0 39.21,94.68 l -51.6,51.6 a 18.46,18.46 0 0 0 0,26 l 77.66,77.66 a 18.46,18.46 0 0 0 26,0 l 51.6,-51.7 a 317.34,317.34 0 0 0 94.79,39.32 v 72.92 a 18.48,18.48 0 0 0 18.42,18.42 h 109.76 a 18.48,18.48 0 0 0 18.42,-18.42 v -73 a 315.09,315.09 0 0 0 94.68,-39.32 l 51.6,51.6 a 18.46,18.46 0 0 0 26,0 l 77.66,-77.66 a 18.46,18.46 0 0 0 0,-26 l -51.7,-51.6 A 317.65,317.65 0 0 0 851.29,571 h 72.92 a 18.48,18.48 0 0 0 18.42,-18.42 V 443 a 18.3,18.3 0 0 0 -18.2,-18.46 z m -162.55,146.6 a 222.38,222.38 0 0 1 -13,31.45 235.21,235.21 0 0 1 -103.55,103.62 222.38,222.38 0 0 1 -31.45,13 232.46,232.46 0 0 1 -73.36,11.79 234.81,234.81 0 0 1 -73.25,-11.63 243.3,243.3 0 0 1 -31.56,-13 233.51,233.51 0 0 1 -116.76,-281.73 221.09,221.09 0 0 1 13,-31.35 233.9,233.9 0 0 1 43.52,-60.11 231.37,231.37 0 0 1 60.11,-43.52 234.74,234.74 0 0 1 177.95,-13.14 222.38,222.38 0 0 1 31.45,13 231.79,231.79 0 0 1 60.11,43.63 235.23,235.23 0 0 1 43.52,60 222.38,222.38 0 0 1 13,31.45 232.46,232.46 0 0 1 11.8,73.4 225.5,225.5 0 0 1 -11.53,73.14 z"
       fill="#002054"
       id="path1" />
    <path
       d="m 540.52,357.86 c -77.23,0 -140,62.8 -140,140 0,77.2 62.8,140 140,140 77.2,0 140,-62.8 140,-140 0,-77.2 -62.76,-140 -140,-140 z m 0,193.89 a 53.86,53.86 0 1 1 53.86,-53.86 53.88,53.88 0 0 1 -53.86,53.86 z"
       fill="#2eb0ff"
       id="path2" />
  </g>
</svg>
